<?xml version="1.0" encoding="utf-8"?>
<!-- Generator: Adobe Illustrator 19.0.0, SVG Export Plug-In . SVG Version: 6.00 Build 0)  -->
<svg version="1.1" id="Layer_1" xmlns="http://www.w3.org/2000/svg" xmlns:xlink="http://www.w3.org/1999/xlink" x="0px" y="0px"
	 viewBox="-283 285 512 512" style="enable-background:new -283 285 512 512;" xml:space="preserve">
<style type="text/css">
	.st0{fill:#1D5FA7;}
	.st1{fill:#FFFFFF;}
	.st2{fill:#4D97C1;}
</style>
<g id="Layer_1_1_">
</g>
<path class="st0" d="M191.5,797h-437c-20.7,0-37.5-16.8-37.5-37.5v-437c0-20.7,16.8-37.5,37.5-37.5h437c20.7,0,37.5,16.8,37.5,37.5
	v437C229,780.2,212.2,797,191.5,797z"/>
<g id="XMLID_341_">
	<path id="XMLID_342_" class="st1" d="M-37.2,522.9c0-1.2-0.2-1.9-1.2-1.9s-1.3,0.6-1.3,1.9v13.4h-5.9v-13.4c0-1.2-0.2-1.9-1.2-1.9
		s-1.3,0.6-1.3,1.9v13.4h-5.8v-13.2c0-2.1,0.1-3.7,0.9-5.1c1.1-1.8,2.9-2.8,5.1-2.8s4,1.1,5.2,3c1.2-1.9,3-3,5.2-3
		c1.9,0,3.6,0.7,4.7,2.1c1.2,1.5,1.4,3.4,1.4,5.7v13.2h-5.8C-37.2,536.2-37.2,522.9-37.2,522.9z"/>
	<path id="XMLID_344_" class="st1" d="M-26.5,518.4c2-2,4.8-3.2,7.6-3.2c2.9,0,5.6,1.2,7.6,3.2s3.1,4.8,3.1,7.6
		c0,2.4-0.8,4.9-2.4,6.8c-2,2.5-5,3.9-8.4,3.9c-2.4,0-4.9-0.8-6.8-2.4c-2.5-2-3.9-5.1-3.9-8.3C-29.7,523.1-28.6,520.4-26.5,518.4z
		 M-18.9,530.6c2.6,0,4.7-2.1,4.7-4.7c0-2.6-2.1-4.7-4.7-4.7s-4.7,2.1-4.7,4.7C-23.6,528.6-21.5,530.6-18.9,530.6z"/>
	<path id="XMLID_347_" class="st1" d="M-6,536.3v-20.7h7.6c4.4,0,6.6,1.7,6.6,5.3c0,1.7-0.7,3.1-2.2,4.3c2,1.1,3,3,3,5.3
		c0,3.5-2.5,5.9-6.7,5.9c-0.4,0-0.8,0-1.2-0.1v-5.2h1.3c0.8,0,1.2-0.3,1.2-1.3s-0.4-1.2-1.2-1.2H1.1v-5.1h0.5c0.8,0,1.2-0.3,1.2-1.3
		S2.3,521,1.6,521H0.2v15.4L-6,536.3L-6,536.3z"/>
	<path id="XMLID_349_" class="st1" d="M11,515.6h6.2v20.7H11V515.6z"/>
	<path id="XMLID_351_" class="st1" d="M26.1,515.6v12.2c0,1.7,0.7,2.5,2.1,2.5c0.2,0,0.4,0,0.6,0v6h-1.4c-2.2,0-3.9-0.5-5.3-1.8
		c-2.1-1.9-2.1-4.2-2.1-7.2c0-0.2,0-0.5,0-0.7v-11H26.1z"/>
	<path id="XMLID_353_" class="st1" d="M38.7,536.3c-0.3,0-0.6,0-0.8,0c-1.5,0-2.8-0.1-4.3-0.8c-1.9-1.1-3-2.9-3-4.7V523
		c0-2.4,0.1-4.2,2.1-5.9c1.4-1.1,3.1-1.5,5.5-1.5h4v6h-3.9c-0.8,0-1.2,0.2-1.2,1s0.4,1,1.2,1H42v4.6h-4.3c-0.8,0-1.2,0.2-1.2,1
		s0.4,1,1.2,1h4.5v6L38.7,536.3L38.7,536.3z"/>
</g>
<g id="XMLID_320_">
	<path id="XMLID_322_" class="st1" d="M-37.2,552.8c0-1.2-0.2-1.9-1.2-1.9s-1.3,0.6-1.3,1.9v13.4h-5.9v-13.4c0-1.2-0.2-1.9-1.2-1.9
		s-1.3,0.6-1.3,1.9v13.4h-5.8V553c0-2.1,0.1-3.7,0.9-5.1c1.1-1.8,2.9-2.8,5.1-2.8s4,1.1,5.2,3c1.2-1.9,3-3,5.2-3
		c1.9,0,3.6,0.7,4.7,2.1c1.2,1.5,1.4,3.4,1.4,5.7v13.2h-5.8C-37.2,566.1-37.2,552.8-37.2,552.8z"/>
	<path id="XMLID_324_" class="st1" d="M-26.5,548.3c2-2,4.8-3.2,7.6-3.2c2.9,0,5.6,1.2,7.6,3.2s3.1,4.8,3.1,7.6
		c0,2.4-0.8,4.9-2.4,6.8c-2,2.5-5,3.9-8.4,3.9c-2.4,0-4.9-0.8-6.8-2.4c-2.5-2-3.9-5.1-3.9-8.3C-29.7,553-28.6,550.3-26.5,548.3z
		 M-18.9,560.5c2.6,0,4.7-2.1,4.7-4.7c0-2.6-2.1-4.7-4.7-4.7s-4.7,2.1-4.7,4.7C-23.6,558.4-21.5,560.5-18.9,560.5z"/>
	<path id="XMLID_327_" class="st1" d="M-6.2,555.1c0-0.2,0-0.4,0-0.6c0-1.6,0.1-3.2,0.9-5.1c1.1-2.7,3.7-4.4,6.5-4.4
		c2.4,0,4.5,1.2,5.8,3.2c1.4,2.1,1.5,4.3,1.5,6.9v11h-6v-12.5c0-1.5-0.3-2.3-1.3-2.3c-1.1,0-1.2,0.9-1.2,2.3v12.5h-6.1v-11H-6.2z"/>
	<path id="XMLID_329_" class="st1" d="M19.2,566.2c-0.3,0-0.6,0-0.8,0c-1.5,0-2.8-0.1-4.3-0.8c-1.9-1.1-3-2.9-3-4.7v-7.8
		c0-2.4,0.1-4.2,2.1-5.9c1.4-1.1,3.1-1.5,5.5-1.5h4v6h-3.9c-0.8,0-1.2,0.2-1.2,1s0.4,1,1.2,1h3.7v4.6h-4.4c-0.8,0-1.2,0.2-1.2,1
		s0.4,1,1.2,1h4.5v6L19.2,566.2L19.2,566.2z"/>
	<path id="XMLID_331_" class="st1" d="M29.3,566.2v-11.3l-6-9.4h6.2l2.9,4.1l2.9-4.1h6.2l-6,9.4v11.3H29.3z"/>
</g>
<path id="XMLID_450_" class="st1" d="M-201.3,594.9c-1.5-0.3-3-0.6-4.4-0.9c0.2,0.4,0.4,0.9,0.5,1.3c1.4,0.3,2.9,0.6,4.4,0.8
	C-201,595.7-201.2,595.3-201.3,594.9z M-205.8,583.1c-1.9-5.4-3.5-10.7-4.7-15.8c-0.1-0.5-0.2-0.9-0.3-1.4h-1.5v8.8
	c0.6,2,1.2,4.1,1.9,6.1c0.2,0.5,0.4,1.1,0.5,1.6c0.1,0.4,0.3,0.8,0.4,1.2c1.4,0.2,2.8,0.4,4.2,0.6
	C-205.6,583.8-205.7,583.5-205.8,583.1z M-143.8,550.9c-0.3,0-0.6,0.1-1,0.1c-8,1.1-15.4,1.6-22.3,1.7c-0.3,0-0.7,0.1-1,0.1h-0.9
	c-2.8,0-5.4-0.1-8-0.3c0.1,1.3,0.2,2.6,0.4,4c2.4,0.1,4.9,0.1,7.5,0.1h0.4c0.3,0,0.6,0.1,0.9,0c0.3,0,0.7,0,1,0
	c6.8-0.1,14.1-0.6,22-1.6c0.3,0,0.7-0.1,1-0.1s0.6-0.1,0.9-0.1c0.1-1.3,0.1-2.6,0.2-3.9C-143.1,550.8-143.4,550.8-143.8,550.9z
	 M-123.7,547.1c0.6-20.5-2.3-37.8-6.1-51.2c5.6-1.4,11.3-3.3,17.1-5.6c7.8,11.5,10.8,22.5,10.9,22.8l3.6-0.9
	c-0.1-0.5-13.2-49.6-57.7-50.9c-20.8-0.6-41.8,8.3-57.5,24.3c-16.8,17.1-25.7,40.2-24.7,63.5c2.3,48.5,43.8,76.6,71.6,77.5v-0.9l0,0
	l3.1-2c-5.2-8-9.6-16.1-13.1-24.1c7.4,1.1,15.1,1.9,22.8,1.9c5.8,0,11.6-0.4,17.1-1.4c-0.1,0.2-0.1,0.4-0.2,0.6l3.6,1.1
	c0.3-0.9,0.5-1.7,0.7-2.6c1.2-0.3,2.4-0.6,3.6-0.9l-1-3.6c-0.5,0.1-0.9,0.2-1.4,0.3c4.4-15.9,6.6-30.6,7.3-44
	c7.7-1.8,15.8-4,24.3-6.8l-1.2-3.6C-108.7,543.4-116.4,545.5-123.7,547.1z M-115,487.2c-5.4,2.1-10.7,3.8-15.9,5.2
	c-3.7-11.7-7.9-20.1-10.5-24.8C-129.7,471.5-121.1,479.2-115,487.2z M-146.6,466.2c1.6,2.4,7.2,11.8,12.1,27
	c-14.1,3.2-27.2,4-38.6,3.5c8.8-16.9,19.2-28,22.3-31.2C-149.3,465.7-147.9,465.9-146.6,466.2z M-155.9,465.1c0.1,0,0.2,0,0.2,0
	c-4.8,5.1-13.9,15.9-21.6,31.4c-9.1-0.7-17-2.1-23.1-3.6C-183.9,471.4-158.4,465.6-155.9,465.1z M-189.3,534.6
	c0,0.2-0.1,0.5-0.1,0.7c-0.2,1.6-0.4,3.3-0.6,5c0,0.3-0.1,0.5-0.1,0.8c-0.1,0.4-0.1,0.9-0.1,1.3c-0.2,2.8-0.3,5.7-0.3,8.7
	c-7.7-1.2-14.4-2.9-20.1-4.8c-0.6-0.2-1.3-0.4-1.9-0.6s-1.2-0.4-1.8-0.6c-0.2-2.7-0.3-5.4-0.2-8c0-0.3,0-0.6,0-0.9s0-0.6,0-1
	c0.3-11.6,2.8-22,7.4-31.4c1.3-2.7,2.8-5.2,4.4-7.5c6.2,1.6,14.3,3.1,23.7,3.9c-1.2,2.6-2.4,5.3-3.5,8.2c-2.8,7.2-5.2,15.6-6.6,24.9
	C-189.2,533.6-189.3,534.1-189.3,534.6z M-203.5,589.5c-0.6-1.5-1.1-2.9-1.6-4.4c-0.1-0.3-0.2-0.6-0.3-0.9c-0.1-0.4-0.3-0.8-0.4-1.1
	c-1.9-5.4-3.5-10.7-4.7-15.8c-0.1-0.5-0.2-0.9-0.3-1.4c-0.1-0.3-0.2-0.6-0.2-1c-0.4-1.8-0.8-3.5-1.1-5.3c-0.1-0.3-0.1-0.6-0.2-0.9
	c-0.6-3.2-1.1-6.3-1.4-9.3c0.5,0.2,0.9,0.3,1.4,0.5c0.6,0.2,1.2,0.4,1.9,0.6c5.7,1.8,12.5,3.5,20.2,4.6c0.4,12.2,2.8,25.4,8.1,39.5
	c-3.2-0.6-6.4-1.3-9.4-2c-0.6-0.2-1.3-0.3-1.9-0.5C-197.1,591.3-200.4,590.4-203.5,589.5z M-210.8,488.2
	c10.9-11.1,24.3-18.5,38.4-21.6c-9.9,4.4-22.5,12.1-32,25.2c-3.3-0.9-5.9-1.8-7.6-2.4C-211.5,489.1-211.2,488.6-210.8,488.2z
	 M-214.6,492.5c1.5,0.6,4.3,1.6,8.1,2.6c-1.4,2.1-2.7,4.4-3.9,6.8c-4.8,9.8-7.4,20.8-7.7,33c0,0.3,0,0.7,0,1c-0.1,2.5,0,5,0.1,7.5
	c-0.6-0.3-1.3-0.5-1.9-0.8c-7.6-3.4-12.1-6.7-13.7-8C-231.6,519.3-225,504.6-214.6,492.5z M-234.3,548.8c-0.2-3.3-0.1-6.6,0.2-9.8
	c2.7,2,7.4,5,14.2,7.9c0.6,0.3,1.2,0.5,1.9,0.8c0.1,0.1,0.2,0.1,0.3,0.2c0.8,8.5,2.6,17.4,5.3,26.8c0.6,2,1.2,4.1,1.9,6.1
	c0.2,0.5,0.4,1.1,0.5,1.6c0.1,0.4,0.3,0.8,0.4,1.2c0.1,0.3,0.2,0.5,0.3,0.8c0.4,1.2,0.8,2.4,1.3,3.6c-3.9-1.2-7.3-2.4-10-3.4
	c-0.7-0.2-1.3-0.5-1.9-0.7c-2.8-1-4.7-1.8-5.5-2.1C-230.4,572.4-233.8,561.3-234.3,548.8z M-219.9,590.9L-219.9,590.9L-219.9,590.9
	c-0.9-1.2-1.7-2.4-2.5-3.7c0.8,0.3,1.6,0.6,2.4,0.9c0.6,0.2,1.2,0.5,1.9,0.7c3.2,1.2,7.2,2.5,11.8,3.9c0.2,0.4,0.3,0.9,0.5,1.3
	c0.2,0.4,0.4,0.9,0.5,1.3c0.1,0.3,0.2,0.5,0.3,0.8c2.1,5.2,4.5,10.4,7.1,15.8C-205.9,606.7-213.7,599.6-219.9,590.9z M-168.3,622.7
	c-7.3-0.6-15.5-3.1-23.6-7.3c-3.2-6.3-6.1-12.5-8.6-18.4c-0.1-0.3-0.2-0.6-0.4-0.9c-0.2-0.4-0.3-0.8-0.5-1.2
	c-0.1-0.3-0.2-0.6-0.4-0.9c1.9,0.5,3.8,1.1,5.8,1.5c0.8,0.2,1.5,0.4,2.3,0.6c0.6,0.2,1.2,0.3,1.9,0.5c3.5,0.8,7.3,1.6,11.1,2.3
	C-177.5,606.6-173.4,614.5-168.3,622.7z M-135.2,596c-13.7,2.6-28.9,1.7-42.9-0.6c-5.3-13.3-8.2-26.6-8.7-39.8
	c2.6,0.3,5.4,0.6,8.2,0.7c0.3,0,0.6,0,0.9,0.1c0.3,0,0.7,0,1.1,0c2.4,0.1,4.9,0.1,7.5,0.1h0.4c0.3,0,0.6,0.1,0.9,0c0.3,0,0.7,0,1,0
	c6.8-0.1,14.1-0.6,22-1.6c0.3,0,0.7-0.1,1-0.1s0.6-0.1,0.9-0.1c2.7-0.4,5.4-0.8,8.2-1.3c0.3,0,0.6-0.1,1-0.2
	c0.3-0.1,0.6-0.1,0.9-0.2c1.7-0.3,3.5-0.7,5.3-1.1C-128.4,565.3-130.7,580-135.2,596z M-127.4,548c-1.8,0.4-3.5,0.7-5.2,1.1
	c-0.3,0.1-0.6,0.1-1,0.2c-0.3,0.1-0.6,0.1-1,0.2c-2.8,0.5-5.6,1-8.3,1.3c-0.3,0-0.6,0.1-0.9,0.1c-0.3,0-0.6,0.1-1,0.1
	c-8,1.1-15.4,1.6-22.3,1.7c-0.3,0-0.7,0.1-1,0.1h-0.9c-2.8,0-5.4-0.1-8-0.3l-1-0.1c-0.3,0-0.6-0.1-0.9-0.1c-2.8-0.2-5.4-0.4-7.9-0.8
	c0-3.7,0.2-7.4,0.5-11.1c0-0.5,0.1-1.1,0.2-1.6c0-0.3,0.1-0.6,0.1-0.9c0-0.2,0-0.3,0.1-0.5c0-0.2,0.1-0.5,0.1-0.8
	c0.1-0.4,0.1-0.9,0.2-1.3c1.2-8.5,3.5-17.1,6.7-25.5c1.3-3.3,2.6-6.4,4.1-9.4c2.8,0.2,5.7,0.2,8.7,0.2c5.5,0,11.4-0.3,17.4-1
	c0.3,0,0.6-0.1,0.9-0.1c0.3,0,0.6-0.1,1-0.1c3-0.4,6-0.9,9.1-1.5c0.3-0.1,0.6-0.1,0.9-0.2c0.3-0.1,0.7-0.1,1-0.2
	c0.8-0.2,1.7-0.4,2.6-0.6C-129.6,510.1-126.7,527.4-127.4,548z"/>
<g id="XMLID_402_">
	<path id="XMLID_430_" class="st1" d="M-212.4,559.6l18.8-0.3v5.9l-18.8-0.3v18.9l0.7,0.2c6.3,1.6,15.1,1.6,18.1,1.6v10
		c-11,0-21.9-4.8-24.4-5.9v-52.8c10.7,0.8,22.8-2.9,25.2-3.8l7.1,4.5c-7,6.3-25.6,6.7-25.8,6.7h-0.9L-212.4,559.6L-212.4,559.6z"/>
	<path id="XMLID_432_" class="st0" d="M-193.6,584.6v1c-2.9,0-11.7,0-18.1-1.6l-0.7-0.2v-0.7C-204.9,584.9-193.6,584.6-193.6,584.6z
		"/>
	<polygon id="XMLID_417_" class="st2" points="-193.6,565.2 -193.6,566.2 -212.4,565.8 -212.4,564.9 	"/>
	<polygon id="XMLID_431_" class="st2" points="-193.6,558.3 -193.6,559.3 -212.4,559.6 -212.4,558.7 	"/>
	<path id="XMLID_416_" class="st0" d="M-211.5,544.2c0.2,0,18.8-0.4,25.8-6.7l-7.1-4.5c-2.4,0.8-14.5,4.6-25.2,3.8v52.8
		c2.5,1.2,13.4,5.9,24.4,5.9v0.9c-13.1,0.3-26.3-6.3-26.3-6.3v-54.5c13.1,1.3,26.5-3.8,26.5-3.8l8.7,5.3c-6.6,7.5-27.7,7.8-27.7,7.8
		V544L-211.5,544.2z"/>
	<path id="XMLID_427_" class="st0" d="M-210.5,546.1v11.6l18.8-0.3v9.7l-18.8-0.3v15.5c7.3,1.7,17.7,1.4,17.8,1.4h1v13.8h-0.9
		c-0.3,0-0.6,0-1,0c-12.9,0-25.2-6.1-25.8-6.4l-0.5-0.3v-0.6c0,0,13.1,6.6,26.3,6.3v-11.9c0,0-11.3,0.3-18.8-1.6v-17.2l18.8,0.3
		v-7.8l-18.8,0.3v-13.5c0,0,21.1-0.3,27.7-7.8l-8.7-5.3c0,0-13.4,5-26.5,3.8v-1.1l1,0.1c11.6,1.2,25.7-3.7,25.9-3.7l0.4-0.2l9.8,6.1
		l-0.7,0.8C-189.6,544.9-206.4,545.9-210.5,546.1z"/>
</g>
<g id="XMLID_337_">
	<path id="XMLID_385_" class="st1" d="M-134.5,547.5c0,0.6,0,1.3-0.1,1.9c-0.1,1.3-0.1,2.6-0.2,3.9c-3,36.9-23.9,38.4-24.1,38.4
		c-2.8,0.1-5.2-0.9-7.4-3.2c-6.1-6.1-9-19.9-10.3-32.1c-0.2-1.4-0.3-2.7-0.4-4c-0.7-8.6-0.7-15.9-0.7-18.4h9
		c-0.2,2.7-0.6,10.3-0.3,18.7c0,1.3,0.1,2.6,0.2,4c0.6,9.7,2.3,19.8,6.3,24.2c0.7,0.7,1.4,1.2,2.2,1.5c0.9,0.5,1.9,0.8,2.9,0.8
		c1.7,0,3.2-0.4,4.5-1.2c1.2-0.5,2.3-1.4,3.3-2.5c4.1-4.9,6-14.2,6.6-24.7c0.1-1.3,0.1-2.6,0.2-3.9c0.5-20.6-3.1-44.5-4.2-51.4
		c-0.1-0.3-0.1-0.6-0.2-0.9l9-1.3c0.1,0.2,0.2,0.4,0.3,0.6C-136.6,501.1-133.5,512.7-134.5,547.5z"/>
	<path id="XMLID_435_" class="st0" d="M-136,497.4c-0.5-1.3-0.8-1.8-0.8-1.8l-0.3-0.5l-12.2,1.7l0.1,0.9c0,0.1,0.1,0.8,0.3,1.9
		c1.1,6.9,4.7,31.1,4.1,51.4c0,1.3-0.1,2.6-0.2,3.9c-0.6,10.1-2.3,18.8-6.1,23.3c-1.8,2.1-3.9,2.7-6.4,2.7c-1.4,0-2.6-0.2-3.8-1.4
		c-3.7-4-5.3-13.5-5.8-22.9c-0.1-1.3-0.1-2.7-0.2-4c-0.3,0-0.7,0-1,0c0,1.3,0.1,2.6,0.2,4c0.6,11,2.5,22.6,7.6,25.7
		c0.9,0.4,1.9,0.5,2.9,0.5c1.6,0,3.2-0.2,4.5-0.9c5.9-3.6,8.3-14.4,8.9-27.1c0.1-1.3,0.1-2.6,0.2-3.9c0.5-20.7-3.2-44.8-4.2-51.4
		c-0.2-1.1-0.3-1.7-0.3-1.7l10.6-1.4c0,0,0.2,0.4,0.6,1.4c1.4,3.6,4.4,15.6,3.5,50.1c0,0.5,0,1-0.1,1.4c-0.1,1.4-0.1,2.7-0.2,3.9
		c-3,38.8-25.1,39.9-25.1,39.9c-12.4,0.4-17.1-19.9-18.8-36.7c-0.1-1.4-0.3-2.7-0.4-4c-0.3,0-0.6,0-0.9-0.1c0.1,1.3,0.2,2.7,0.4,4
		c1.3,12.7,4.3,27.2,10.9,33.8c2.5,2.5,5.3,3.9,8.5,3.9h0.4c0.2,0,23-1.7,26-41.1c0.1-1.3,0.2-2.6,0.2-3.9c0-0.4,0-0.8,0-1.2
		C-131.6,514.2-134.5,501.6-136,497.4z"/>
	<path id="XMLID_379_" class="st0" d="M-166.7,533.1c0,0.2-0.7,9.3-0.3,19.5c-0.3,0-0.7,0-1,0c-0.3-10,0.4-18.7,0.4-18.7h-10.9
		c0,0-0.2,8.2,0.6,18.4c-0.3,0-0.6,0-0.9-0.1c-0.8-10.2-0.6-18.5-0.6-19.3V532h12.9L-166.7,533.1z"/>
	<path id="XMLID_381_" class="st0" d="M-160.3,582.3c-0.8-0.3-1.5-0.8-2.2-1.5c-4.1-4.4-5.7-14.4-6.3-24.2c-0.1-1.3-0.2-2.7-0.2-4
		c-0.3-8.4,0.1-15.9,0.3-18.7h1c0,0-0.7,8.6-0.4,18.7c0,1.3,0.1,2.6,0.2,4C-167.3,567.6-165.4,579.1-160.3,582.3z"/>
	<path id="XMLID_387_" class="st0" d="M-133.5,547.8c0,0.5,0,1-0.1,1.4c-0.1,1.4-0.1,2.7-0.2,3.9c-3,38.8-25.1,39.9-25.1,39.9
		c-12.4,0.4-17.1-19.9-18.8-36.7c-0.1-1.4-0.3-2.7-0.4-4c-0.8-10.2-0.6-18.4-0.6-18.4h0.9c0,2.5,0,9.8,0.7,18.4
		c0.1,1.3,0.2,2.7,0.4,4c1.3,12.3,4.1,26,10.3,32.1c2.2,2.2,4.6,3.2,7.4,3.2c0.2,0,21.1-1.4,24.1-38.4c0.1-1.3,0.2-2.6,0.2-3.9
		c0-0.6,0.1-1.2,0.1-1.9c1-34.8-2.1-46.4-3.4-49.7c-0.1-0.3-0.2-0.5-0.3-0.6l-9,1.3c0,0.2,0.1,0.5,0.2,0.9
		c1.1,6.9,4.7,30.8,4.2,51.4c0,1.3-0.1,2.6-0.2,3.9c-0.6,10.6-2.4,19.8-6.6,24.7c-1,1.2-2.1,2-3.3,2.5c5.9-3.6,8.3-14.4,8.9-27.1
		c0.1-1.3,0.1-2.6,0.2-3.9c0.5-20.7-3.2-44.8-4.2-51.4c-0.2-1.1-0.3-1.7-0.3-1.7l10.6-1.4c0,0,0.2,0.4,0.6,1.4
		C-135.6,501.2-132.6,513.3-133.5,547.8z"/>
</g>
<path id="XMLID_398_" class="st1" d="M35.2,368c-41.9-0.6-67.5,0-100,0c-32.6,0-34.9,31.4-34.9,47.3s0,37.8,0,37.8l15,8.6v-61.2
	H61.8l1.9,140.9H75V404.3C74.9,404.3,77.1,368.6,35.2,368z M16.7,383.7h-58.2v-5.6h58.2C16.7,378.1,16.7,383.7,16.7,383.7z"/>
<path id="XMLID_397_" class="st1" d="M127.5,540.4l-15.6,44.2L100.6,574c0,0-34.4,47-115.2,27.6c0,0,70.1,2.5,102.1-41.3
	c0,0-13.1-13.1-11.6-13.8S127.5,540.4,127.5,540.4z"/>
<path id="XMLID_338_" class="st1" d="M59.9,616.6v67.6H-82.8v-93.9l-16.9,16.9c0,0,0,50.7,0,66.4s8.1,44.5,35.7,44.5H47.4
	c30,0,31.3-33.8,31.3-33.8v-77L59.9,616.6z M-9.6,709.6c-5.7,0-10.4-4.7-10.4-10.4s4.7-10.4,10.4-10.4c5.7,0,10.4,4.7,10.4,10.4
	S-3.8,709.6-9.6,709.6z"/>
<path id="XMLID_335_" class="st1" d="M-149.8,449.4c0,0,88.9,6.3,88.9,70.7s-90.8,120.2-129,128.3c0,0,100.3-52,99.5-127.7
	C-91,461.9-149.8,449.4-149.8,449.4z"/>
<path id="XMLID_334_" class="st1" d="M56.5,425.6c-39.1-24.4-74.8,33.2-74.8,33.2l13.1,10.6l-49.6,20l5.8-48.8l10.6,8.8
	c11.6-18.5,42.6-39.4,62.6-40.7C44.3,407.5,56.5,425.6,56.5,425.6z"/>
</svg>
