<?xml version="1.0" encoding="utf-8"?>
<!-- Generator: Adobe Illustrator 23.0.0, SVG Export Plug-In . SVG Version: 6.00 Build 0)  -->
<svg version="1.1" xmlns="http://www.w3.org/2000/svg" xmlns:xlink="http://www.w3.org/1999/xlink" x="0px" y="0px"
	 viewBox="0 0 512 512" style="enable-background:new 0 0 512 512;" xml:space="preserve">
<style type="text/css">
	.st0{fill:#F7CD00;}
	.st1{fill:#FFFFFF;}
	.st2{fill:#F93508;}
	.st3{fill:#417BAF;}
	.st4{fill:#13507A;}
	.st5{fill:#C11B00;}
</style>
<g id="Layer_1">
</g>
<g id="Layer_2">
	<path class="st0" d="M455.1,509H58.6c-31.9,0-57.8-25.9-57.8-57.8V57.8C0.8,25.9,26.7,0,58.6,0h396.5c31.9,0,57.7,25.9,57.7,57.8
		v393.5C512.8,483.1,486.9,509,455.1,509z"/>
	<g id="XMLID_97_">
		<path id="XMLID_12_" class="st1" d="M281.6,178.5l38.9-71l3.6-6.3l28.8,14.9l18.6-20.3l35.4,26.4v8.5l49.3-0.8l14.4,39.3
			l-43.9,219H438l-21.9,10l-2.4-6.1l-86.7-29.3l25.7-148.1c0,0-31.5-20.6-62-23.9c-14.2-1.6-12.1-3.3-12.1-3.3L281.6,178.5z"/>
		<path id="XMLID_75_" class="st1" d="M413.6,404l-4.4-8.2l-89.6-29.4l27.9-154.5c-8.9-5.2-33.7-10.5-57.3-17.5
			c-10.4-3.1-13.7-2.8-18-4.9l49.2-96.9l30.4,15.6L374,87.5l33,34.6l5.2,4.7l51.7-3.6l15.1,42.1l-44.3,209.9h17.9L413.6,404z
			 M334.4,357.6l84.3,28.3l0.7-0.4l46.2-219.2l-10.5-29.9l-48.1,0.8v-11.6l-31.6-21.5L354.1,124l-27.4-14.2l-0.6,1l-39.4,72.9
			c1.2,0.2,2.8,0.4,4.7,0.6c31.6,3.5,63.5,23.9,64.8,24.7l3.6,2.3L334.4,357.6z"/>
	</g>
	<path id="XMLID_91_" d="M414.1,393.9l-90.7-29.7l42.3-232.3l2.6-0.1c20.5-0.7,87.9-2.9,94.1-0.5l0,0c6.7,2.6,19.9,20.9,22.5,24.5
		l0.8,1.1l-38.3,220.8L414.1,393.9z M330.6,359.8l82.8,27.2l28-13.6l37.3-214.9c-6-8.3-15.3-19.7-18.7-21.2c-5-1.5-56.1-0.3-89,0.8
		L330.6,359.8z"/>
	<path id="XMLID_78_" d="M385,381c1,0,30.5,8.1,32.5-1.7s42-218.9,44-228.7c2-9.8-6.7-16.5-16.2-16.8l15.9,0.6l21,23.4l-37.8,217.9
		l-30.7,14.9L385,381z"/>
	<path id="XMLID_79_" d="M416.1,146.2l34.2,2.4L429,264.5C429.1,264.4,429.1,170.2,416.1,146.2z"/>
	<path id="XMLID_54_" d="M378,289.9c0.2-1.4-0.7-2.7-2-3l-22.4-6.1l-1.7,14.3c0,0.1,0.1,0.3,0.2,0.3l24.5,7L378,289.9z"/>
	<path id="XMLID_83_" d="M416.1,300.7c0.2-1.4-0.7-2.7-2-3l-22.4-6.1l-1.7,14.3c0,0.1,0.1,0.3,0.2,0.3l24.5,7L416.1,300.7z"/>
	<path id="XMLID_84_" d="M412.1,324.2c0.2-1.4-0.7-2.7-2-3l-22.4-6.1l-1.7,14.3c0,0.1,0.1,0.3,0.2,0.3l24.5,7L412.1,324.2z"/>
	<path id="XMLID_85_" d="M407.4,349.2c0.2-1.4-0.7-2.7-2-3l-22.4-6.1l-1.7,14.3c0,0.1,0.1,0.3,0.2,0.3l24.5,7L407.4,349.2z"/>
	<path id="XMLID_86_" d="M370,338.3c0.2-1.4-0.7-2.7-2-3l-22.4-6.1l-1.7,14.3c0,0.1,0.1,0.3,0.2,0.3l24.5,7L370,338.3z"/>
	<path id="XMLID_87_" d="M373.8,313.3c0.2-1.4-0.7-2.7-2-3l-22.4-6.1l-1.7,14.3c0,0.1,0.1,0.3,0.2,0.3l24.5,7L373.8,313.3z"/>
	<path id="XMLID_88_" class="st2" d="M420.3,276c0,0-5.1-35.9-59.5-57.6c0,0,1.6,36.4-1.5,43.6L420.3,276z"/>
	<path id="XMLID_81_" class="st3" d="M423.6,262.1c0,0-15.6-52.9-142-78.7l43.7-74.5C325.4,108.9,430.1,139.9,423.6,262.1z"/>
	<path id="XMLID_90_" class="st3" d="M356.9,112.6c2,0.3,55.4,40.9,63.3,77.9c0,0-5.8-67.1-48.8-92.2L356.9,112.6z"/>
	<g id="XMLID_128_">
		<path id="XMLID_129_" class="st4" d="M124,223c0.4,0.9,0.8,1.9,1.2,2.9c0.4-1,0.8-2,1.2-2.9c0.4-1,0.8-1.9,1.3-2.8l17.6-32.9
			c0.2-0.4,0.5-0.7,0.7-1s0.5-0.4,0.8-0.5s0.6-0.2,1-0.2s0.8,0,1.3,0h8.3V245h-9.7v-38.4c0-0.7,0-1.5,0.1-2.3c0-0.8,0.1-1.7,0.2-2.6
			l-18,33.7c-0.4,0.8-0.9,1.4-1.6,1.8c-0.7,0.4-1.4,0.6-2.3,0.6h-1.5c-0.9,0-1.6-0.2-2.3-0.6c-0.7-0.4-1.2-1-1.6-1.8l-18.2-33.8
			c0.1,0.9,0.2,1.8,0.2,2.6c0,0.9,0.1,1.7,0.1,2.4V245h-9.7v-59.4h8.3c0.5,0,0.9,0,1.3,0c0.4,0,0.7,0.1,1,0.2s0.6,0.3,0.8,0.5
			c0.3,0.2,0.5,0.6,0.7,1l17.7,33C123.1,221.2,123.6,222.1,124,223z"/>
		<path id="XMLID_131_" class="st4" d="M208.3,185.5v9.1h-17.9v50.3h-11.1v-50.3h-17.9v-9.1L208.3,185.5L208.3,185.5z"/>
		<path id="XMLID_133_" class="st4" d="M219.6,185.6c0.3,0,0.6,0.1,0.9,0.2c0.3,0.1,0.5,0.3,0.8,0.5c0.3,0.2,0.5,0.5,0.8,0.9
			l31.2,39.7c-0.1-1-0.2-1.9-0.2-2.8s-0.1-1.8-0.1-2.6v-36.1h9.7v59.4H257c-0.9,0-1.6-0.1-2.2-0.4c-0.6-0.3-1.1-0.8-1.7-1.5
			L222,203.5c0.1,0.9,0.2,1.7,0.2,2.6s0.1,1.6,0.1,2.4V245h-9.7v-59.4h5.8C218.9,185.5,219.3,185.6,219.6,185.6z"/>
	</g>
	<g id="XMLID_98_">
		<path id="XMLID_100_" class="st5" d="M115,283.8c0.3,0.6,0.5,1.3,0.8,1.9c0.3-0.7,0.5-1.3,0.8-1.9c0.3-0.6,0.6-1.2,0.9-1.8
			l11.5-21.8c0.1-0.3,0.3-0.5,0.4-0.6c0.2-0.2,0.3-0.3,0.5-0.4s0.4-0.1,0.6-0.1s0.5,0,0.8,0h5.5v39.2h-6.4V273c0-0.5,0-1,0-1.5
			c0-0.6,0.1-1.1,0.1-1.7L118.7,292c-0.3,0.5-0.6,0.9-1.1,1.2c-0.4,0.3-0.9,0.4-1.5,0.4h-1c-0.6,0-1.1-0.1-1.5-0.4
			c-0.4-0.3-0.8-0.7-1.1-1.2l-12-22.3c0.1,0.6,0.1,1.2,0.2,1.7c0,0.6,0,1.1,0,1.6v25.3h-6.4v-39.2h5.5c0.3,0,0.6,0,0.8,0
			s0.4,0.1,0.6,0.1c0.2,0.1,0.4,0.2,0.5,0.4c0.2,0.2,0.3,0.4,0.5,0.6l11.7,21.8C114.3,282.6,114.7,283.2,115,283.8z"/>
		<path id="XMLID_102_" class="st5" d="M154.5,270c2.1,0,4,0.3,5.7,1s3.1,1.6,4.3,2.8c1.2,1.2,2.1,2.7,2.8,4.5c0.6,1.8,1,3.7,1,5.9
			s-0.3,4.2-1,6s-1.6,3.3-2.8,4.5s-2.6,2.2-4.3,2.9c-1.7,0.7-3.6,1-5.7,1c-2.1,0-4-0.3-5.7-1s-3.1-1.6-4.4-2.9
			c-1.2-1.2-2.1-2.8-2.8-4.5c-0.7-1.8-1-3.8-1-6s0.3-4.2,1-5.9c0.7-1.8,1.6-3.3,2.8-4.5s2.7-2.2,4.4-2.8
			C150.5,270.3,152.4,270,154.5,270z M154.5,293.5c2.3,0,4-0.8,5.1-2.3c1.1-1.6,1.7-3.8,1.7-6.8s-0.6-5.3-1.7-6.9
			c-1.1-1.6-2.8-2.4-5.1-2.4c-2.3,0-4.1,0.8-5.2,2.4c-1.1,1.6-1.7,3.9-1.7,6.8c0,3,0.6,5.3,1.7,6.8
			C150.4,292.7,152.2,293.5,154.5,293.5z"/>
		<path id="XMLID_105_" class="st5" d="M171.7,298.3V258h6.7v15.9c1.1-1.2,2.4-2.1,3.7-2.8c1.4-0.7,3-1,4.9-1c1.5,0,2.9,0.3,4.2,0.9
			c1.2,0.6,2.3,1.5,3.2,2.7c0.9,1.2,1.6,2.7,2.1,4.4c0.5,1.8,0.8,3.8,0.8,6c0,2.1-0.3,4-0.8,5.8c-0.6,1.8-1.4,3.3-2.4,4.6
			s-2.3,2.3-3.8,3s-3.1,1.1-4.9,1.1c-0.9,0-1.6-0.1-2.3-0.3c-0.7-0.2-1.3-0.4-1.9-0.7c-0.6-0.3-1.1-0.7-1.6-1.1
			c-0.5-0.4-1-0.9-1.4-1.5l-0.3,1.9c-0.1,0.5-0.3,0.8-0.6,1c-0.3,0.2-0.6,0.3-1.1,0.3L171.7,298.3L171.7,298.3z M184.7,275.2
			c-1.4,0-2.6,0.3-3.6,0.9c-1,0.6-1.9,1.4-2.8,2.5v12.5c0.8,0.9,1.6,1.6,2.5,2c0.9,0.4,1.9,0.6,2.9,0.6s1.9-0.2,2.7-0.6
			c0.8-0.4,1.5-1,2.1-1.7c0.6-0.8,1-1.8,1.3-2.9c0.3-1.2,0.5-2.6,0.5-4.2s-0.1-3-0.4-4.1s-0.6-2-1.1-2.7s-1.1-1.2-1.8-1.5
			C186.4,275.4,185.6,275.2,184.7,275.2z"/>
		<path id="XMLID_108_" class="st5" d="M208.8,262.3c0,0.6-0.1,1.1-0.4,1.6c-0.2,0.5-0.6,0.9-0.9,1.3c-0.4,0.4-0.9,0.7-1.4,0.9
			s-1.1,0.3-1.7,0.3c-0.6,0-1.1-0.1-1.6-0.3s-1-0.5-1.3-0.9c-0.4-0.4-0.7-0.8-0.9-1.3c-0.2-0.5-0.3-1-0.3-1.6s0.1-1.2,0.3-1.7
			c0.2-0.5,0.5-1,0.9-1.4c0.4-0.4,0.8-0.7,1.3-0.9s1.1-0.3,1.6-0.3c0.6,0,1.2,0.1,1.7,0.3s1,0.5,1.4,0.9c0.4,0.4,0.7,0.8,0.9,1.4
			C208.7,261.2,208.8,261.7,208.8,262.3z M207.8,270.4v27.8h-6.7v-27.8H207.8z"/>
		<path id="XMLID_111_" class="st5" d="M220.6,258v40.3h-6.7V258H220.6z"/>
		<path id="XMLID_113_" class="st5" d="M237.9,270c1.7,0,3.4,0.3,4.8,0.8c1.5,0.6,2.7,1.4,3.8,2.5c1.1,1.1,1.9,2.4,2.5,4
			c0.6,1.6,0.9,3.3,0.9,5.4c0,0.5,0,0.9-0.1,1.3c-0.1,0.3-0.1,0.6-0.3,0.8c-0.1,0.2-0.3,0.3-0.5,0.4c-0.2,0.1-0.5,0.1-0.8,0.1H231
			c0.2,2.9,1,5,2.3,6.3c1.3,1.3,3.1,2,5.3,2c1.1,0,2-0.1,2.8-0.4s1.5-0.5,2.1-0.8c0.6-0.3,1.1-0.6,1.5-0.8c0.4-0.3,0.9-0.4,1.3-0.4
			c0.3,0,0.5,0.1,0.7,0.2c0.2,0.1,0.4,0.3,0.5,0.5l1.9,2.4c-0.7,0.9-1.6,1.6-2.5,2.2c-0.9,0.6-1.9,1.1-2.9,1.4c-1,0.4-2,0.6-3.1,0.7
			c-1,0.1-2,0.2-3,0.2c-1.9,0-3.7-0.3-5.4-1c-1.7-0.6-3.1-1.6-4.3-2.8c-1.2-1.3-2.2-2.8-2.9-4.7c-0.7-1.8-1.1-4-1.1-6.4
			c0-1.9,0.3-3.7,0.9-5.4s1.5-3.1,2.7-4.4c1.1-1.2,2.5-2.2,4.2-2.9C233.9,270.4,235.8,270,237.9,270z M238,274.8
			c-2,0-3.5,0.5-4.6,1.7c-1.1,1.1-1.8,2.7-2.1,4.7h12.6c0-0.9-0.1-1.7-0.4-2.5c-0.2-0.8-0.6-1.4-1.1-2s-1.1-1-1.8-1.4
			C239.9,275,239,274.8,238,274.8z"/>
		<path id="XMLID_116_" class="st5" d="M115,338c0.3,0.6,0.5,1.3,0.8,1.9c0.3-0.7,0.5-1.3,0.8-1.9s0.6-1.2,0.9-1.8l11.6-21.7
			c0.1-0.3,0.3-0.5,0.4-0.6c0.2-0.2,0.3-0.3,0.5-0.4s0.4-0.1,0.6-0.1s0.5,0,0.8,0h5.5v39.2h-6.4v-25.4c0-0.5,0-1,0-1.5
			c0-0.6,0.1-1.1,0.1-1.7l-11.8,22.2c-0.3,0.5-0.6,0.9-1.1,1.2c-0.4,0.3-0.9,0.4-1.5,0.4h-1c-0.6,0-1.1-0.1-1.5-0.4
			c-0.4-0.3-0.8-0.7-1.1-1.2l-12-22.3c0.1,0.6,0.1,1.2,0.2,1.7c0,0.6,0,1.1,0,1.6v25.3h-6.4v-39.2h5.5c0.3,0,0.6,0,0.8,0
			s0.4,0.1,0.6,0.1c0.2,0.1,0.4,0.2,0.5,0.4c0.2,0.2,0.3,0.4,0.5,0.6l11.7,21.8C114.3,336.8,114.7,337.4,115,338z"/>
		<path id="XMLID_118_" class="st5" d="M154.5,324.2c2.1,0,4,0.3,5.7,1s3.1,1.6,4.3,2.8c1.2,1.2,2.1,2.7,2.8,4.5
			c0.6,1.8,1,3.7,1,5.9s-0.3,4.2-1,6s-1.6,3.3-2.8,4.5s-2.6,2.2-4.3,2.9c-1.7,0.7-3.6,1-5.7,1c-2.1,0-4-0.3-5.7-1s-3.1-1.6-4.4-2.9
			c-1.2-1.2-2.1-2.8-2.8-4.5c-0.7-1.8-1-3.8-1-6s0.3-4.2,1-5.9c0.7-1.8,1.6-3.3,2.8-4.5s2.7-2.2,4.4-2.8S152.4,324.2,154.5,324.2z
			 M154.5,347.7c2.3,0,4-0.8,5.1-2.3c1.1-1.6,1.7-3.8,1.7-6.8s-0.6-5.3-1.7-6.9c-1.1-1.6-2.8-2.4-5.1-2.4c-2.3,0-4.1,0.8-5.2,2.4
			c-1.1,1.6-1.7,3.9-1.7,6.8c0,3,0.6,5.3,1.7,6.8C150.4,346.9,152.2,347.7,154.5,347.7z"/>
		<path id="XMLID_121_" class="st5" d="M171.6,352.5v-27.8h4.1c0.9,0,1.4,0.4,1.7,1.2l0.5,2.2c0.6-0.6,1.2-1.1,1.8-1.6
			s1.3-0.9,2-1.2s1.4-0.6,2.2-0.8s1.7-0.3,2.6-0.3c1.5,0,2.9,0.3,4,0.8c1.2,0.5,2.2,1.2,2.9,2.2c0.8,0.9,1.4,2,1.8,3.3
			c0.4,1.3,0.6,2.7,0.6,4.3v17.7h-6.7v-17.7c0-1.7-0.4-3-1.2-3.9c-0.8-0.9-2-1.4-3.5-1.4c-1.2,0-2.2,0.3-3.3,0.8
			c-1,0.5-2,1.2-2.9,2.1v20.1L171.6,352.5L171.6,352.5z"/>
		<path id="XMLID_123_" class="st5" d="M212.1,324.2c1.7,0,3.4,0.3,4.8,0.8c1.5,0.6,2.7,1.4,3.8,2.5c1.1,1.1,1.9,2.4,2.5,4
			c0.6,1.6,0.9,3.3,0.9,5.4c0,0.5,0,0.9-0.1,1.3c-0.1,0.3-0.1,0.6-0.3,0.8s-0.3,0.3-0.5,0.4s-0.5,0.1-0.8,0.1h-17.2
			c0.2,2.9,1,5,2.3,6.3s3.1,2,5.3,2c1.1,0,2-0.1,2.8-0.4c0.8-0.3,1.5-0.5,2.1-0.8c0.6-0.3,1.1-0.6,1.5-0.8c0.4-0.3,0.9-0.4,1.3-0.4
			c0.3,0,0.5,0.1,0.7,0.2c0.2,0.1,0.4,0.3,0.5,0.5l1.9,2.4c-0.7,0.9-1.6,1.6-2.5,2.2c-0.9,0.6-1.9,1.1-2.9,1.4c-1,0.4-2,0.6-3.1,0.7
			c-1,0.1-2,0.2-3,0.2c-1.9,0-3.7-0.3-5.4-1c-1.7-0.6-3.1-1.6-4.3-2.8c-1.2-1.3-2.2-2.8-2.9-4.7c-0.7-1.8-1.1-4-1.1-6.4
			c0-1.9,0.3-3.7,0.9-5.4c0.6-1.7,1.5-3.1,2.7-4.4c1.1-1.2,2.5-2.2,4.2-2.9C208.1,324.6,210,324.2,212.1,324.2z M212.2,329
			c-2,0-3.5,0.5-4.6,1.7c-1.1,1.1-1.8,2.7-2.1,4.7h12.6c0-0.9-0.1-1.7-0.4-2.5c-0.2-0.8-0.6-1.4-1.1-2s-1.1-1-1.8-1.4
			C214.1,329.2,213.2,329,212.2,329z"/>
		<path id="XMLID_126_" class="st5" d="M236.7,360.1c-0.2,0.5-0.5,0.8-0.8,1.1c-0.3,0.2-0.8,0.4-1.5,0.4h-5l5.2-11.1l-11.2-25.7h5.8
			c0.6,0,1,0.1,1.3,0.4c0.3,0.3,0.5,0.5,0.6,0.9l5.9,14.4c0.2,0.5,0.4,1,0.5,1.5c0.2,0.5,0.3,1,0.4,1.5c0.1-0.5,0.3-1,0.5-1.5
			s0.4-1,0.6-1.5l5.6-14.4c0.1-0.4,0.4-0.7,0.7-0.9c0.3-0.2,0.7-0.4,1.1-0.4h5.4L236.7,360.1z"/>
	</g>
	<polygon id="XMLID_77_" class="st1" points="416.1,405.5 382.8,400.2 21,400.2 21,208.2 102.8,143.5 303.8,143.3 294.5,155.5 
		107.1,156.3 33,214.3 33,388.1 385.1,388.4 415.1,396.6 444.6,378.9 483.9,159.3 459.9,130.2 407,130.2 407,122.1 463.9,123.3 
		492.6,156.9 450.4,385.9 	"/>
	<path id="XMLID_76_" class="st1" d="M347.6,211.9l16.2,7.7c0,0,3.2-8.3,2.3-8.8S340.6,200,340.6,200L347.6,211.9z"/>
	<path id="XMLID_99_" class="st1" d="M361.9,127.7l7.4-5.6c0,0,16.4,14.9,21.2,20.1l-4.1,7C386.5,149.2,372,134.2,361.9,127.7z"/>
</g>
</svg>
