<?xml version="1.0" encoding="utf-8"?>
<!-- Generator: Adobe Illustrator 19.0.0, SVG Export Plug-In . SVG Version: 6.00 Build 0)  -->
<svg version="1.1" id="Layer_1" xmlns="http://www.w3.org/2000/svg" xmlns:xlink="http://www.w3.org/1999/xlink" x="0px" y="0px"
	 viewBox="-283 285 512 512" style="enable-background:new -283 285 512 512;" xml:space="preserve">
<style type="text/css">
	.st0{fill:#FFFFFF;}
	.st1{fill:#FF6501;}
</style>
<path d="M200.5,797h-455c-15.7,0-28.5-12.8-28.5-28.5v-455c0-15.7,12.8-28.5,28.5-28.5h455c15.7,0,28.5,12.8,28.5,28.5v455
	C229,784.2,216.2,797,200.5,797z"/>
<path id="XMLID_14_" class="st0" d="M-57.6,392.5l-133.6-1.7c-12.3-0.2-22.5,14.3-22.6,28.1c-0.2,13.8,7.6,19,19.9,19.2l72.3-0.8
	l-116.5,115.8c-9.5,8.7-11,22.7-3.2,33.4c7.8,10.7,27,8.1,36.6-0.7l124.5-113.7l-3.5,85.1c-0.2,13.8,8.6,28.4,20.9,28.5
	c12.3,0.2,28.5-10.8,28.7-24.6l1.9-143.5C-31.9,403.9-45.4,392.7-57.6,392.5z"/>
<path id="XMLID_13_" class="st1" d="M3.8,601.6l133.6,1.7c12.3,0.2,22.3-4.9,22.5-18.6c0.2-13.8-9.7-19.1-22-19.2l-72-0.9
	l118.2-110.3c9.5-8.7,11-25.5,3.2-36.2c-7.8-10.7-31.3-12.9-40.8-4.2L23.3,520.2l1.1-81.6c0.2-13.8-7.6-21.7-19.9-21.8
	s-17.8,10.1-18,23.9l-1.9,143.5C-15.5,598-8.5,601.4,3.8,601.6z"/>
<g id="XMLID_1_">
	<path id="XMLID_12_" class="st1" d="M-200.1,655.1c-0.1,4-0.8,7.6-2.3,10.5c-1.5,3-3.6,5.3-6.3,6.8c-2.7,1.5-5.9,2.3-9.5,2.3
		c-3.5,0-6.6-0.9-9.3-2.5c-2.7-1.6-4.8-3.9-6.2-6.9c-1.5-3-2.2-6.4-2.2-10.3v-3c0.1-4,0.8-7.4,2.4-10.5c1.5-3,3.7-5.3,6.4-6.9
		c2.8-1.6,5.9-2.3,9.4-2.3c3.6,0,6.7,0.9,9.4,2.5c2.7,1.6,4.8,4,6.2,7c1.4,3,2.1,6.6,2.1,10.6L-200.1,655.1z M-205.9,652.4
		c0.1-4.9-0.9-8.6-3-11.3c-2.1-2.6-5-4-8.9-4c-3.7,0-6.7,1.2-8.8,3.8c-2.2,2.6-3.3,6.2-3.4,10.8v3c-0.1,4.7,1,8.5,3.1,11.2
		s5.1,4.1,8.8,4.2c3.8,0,6.8-1.2,8.9-3.7s3.2-6.2,3.4-10.9L-205.9,652.4z"/>
	<path id="XMLID_11_" class="st1" d="M-176,648.8c-0.9-0.1-1.8-0.2-2.8-0.2c-3.7,0-6.3,1.4-7.6,4.3l-0.3,21.7l-5.7-0.1l0.4-30.6
		l5.5,0.1v3.5c1.9-2.7,4.5-4,8-4c1.1,0,1.9,0.2,2.5,0.4V648.8z"/>
	<path id="XMLID_10_" class="st1" d="M-151.9,675c-0.3-0.6-0.6-1.7-0.8-3.2c-2.7,2.5-5.8,3.7-9.5,3.7c-3.3,0-5.9-0.9-8-2.7
		c-2.1-1.7-3.1-3.9-3.1-6.5c0-3.2,1.4-5.6,4-7.4c2.6-1.7,6.4-2.6,11.1-2.5l5.5,0.1v-2.4c0-1.8-0.6-3.3-1.7-4.4
		c-1.2-1.1-2.9-1.7-5.2-1.7c-2,0-3.7,0.4-5.1,1.3c-1.4,0.9-2.1,2.1-2.1,3.4l-5.7-0.1c0-1.5,0.6-3,1.8-4.4c1.2-1.4,2.8-2.5,4.8-3.3
		c2-0.8,4.2-1.2,6.7-1.2c3.8,0.1,6.8,1,8.9,2.8c2.1,1.8,3.2,4.2,3.3,7.3l-0.2,14.1c0,2.8,0.3,5,1.1,6.7v0.5L-151.9,675z
		 M-161.3,670.9c1.8,0,3.5-0.4,5.1-1.2s2.8-1.9,3.5-3.3l0.1-6.3l-4.4-0.1c-6.9-0.1-10.4,1.7-10.5,5.5c0,1.6,0.6,2.9,1.7,3.9
		C-164.6,670.4-163.1,670.9-161.3,670.9z"/>
	<path id="XMLID_9_" class="st1" d="M-132.5,644.7l0.1,3.8c2.6-2.9,5.9-4.3,10-4.3c7,0.1,10.5,3.8,10.5,11.1l-0.3,20.2l-5.7-0.1
		l0.3-20.3c0-2.2-0.5-3.8-1.6-4.9c-1.1-1.1-2.7-1.6-5-1.6c-1.8,0-3.5,0.4-4.9,1.3c-1.4,0.9-2.5,2.1-3.3,3.5l-0.3,21.8l-5.7-0.1
		l0.4-30.6L-132.5,644.7z"/>
	<path id="XMLID_8_" class="st1" d="M-104.8,660.1c0.1-4.8,1.3-8.6,3.7-11.3c2.4-2.8,5.6-4.2,9.6-4.1c4,0.1,7.2,1.4,9.4,4.1l0.3-3.4
		l5.2,0.1l-0.4,29.9c-0.1,4-1.4,7.1-3.9,9.3c-2.6,2.2-6,3.3-10.3,3.3c-2.4,0-4.7-0.5-7-1.5s-4-2.3-5.2-3.9l3-3.1
		c2.4,2.8,5.3,4.2,8.9,4.3c2.8,0,4.9-0.7,6.5-2.1c1.6-1.4,2.4-3.4,2.4-6v-2.6c-2.3,2.4-5.4,3.5-9.3,3.5c-3.9-0.1-7-1.5-9.4-4.4
		C-103.7,669-104.8,665-104.8,660.1z M-99.1,660.7c0,3.4,0.7,6.2,2.2,8.2s3.6,3,6.4,3c3.6,0,6.2-1.4,7.9-4.4l0.2-14
		c-1.7-2.9-4.3-4.4-7.8-4.5c-2.8,0-4.9,0.9-6.5,2.9C-98.2,653.9-99,656.8-99.1,660.7z"/>
	<path id="XMLID_7_" class="st1" d="M-54.7,676.8c-4.5-0.1-8.1-1.5-10.9-4.2c-2.8-2.8-4.1-6.4-4.1-11v-1c0-3,0.7-5.7,2-8.1
		c1.3-2.4,3.1-4.2,5.3-5.5c2.3-1.3,4.7-2,7.4-1.9c4.3,0.1,7.6,1.4,10,4.1s3.5,6.4,3.4,11.3v2.2l-22.5-0.3c0,3,1,5.5,2.8,7.3
		c1.8,1.9,4.1,2.8,6.9,2.9c2,0,3.7-0.3,5.1-1.1c1.4-0.7,2.6-1.7,3.7-2.9l3.4,2.5C-44.9,675-49.1,676.9-54.7,676.8z M-55,649.4
		c-2.3,0-4.2,0.7-5.8,2.2s-2.6,3.7-3,6.4l16.6,0.2v-0.4c-0.1-2.7-0.9-4.7-2.2-6.2C-50.8,650.2-52.6,649.4-55,649.4z"/>
	<path id="XMLID_6_" class="st1" d="M-10.6,635.7l14.1,33.8l15-33.4l7.6,0.1l-0.5,41.2l-5.8-0.1l0.2-16l0.8-17.3L5.7,677.2l-4.5-0.1
		L-13,643.6l0.4,17.2l-0.2,16l-5.9-0.1l0.5-41.2L-10.6,635.7z"/>
	<path id="XMLID_5_" class="st1" d="M33.9,661.9c0-3,0.7-5.7,2-8.1c1.3-2.4,3.1-4.2,5.4-5.5c2.3-1.3,4.9-1.9,7.8-1.8
		c4.5,0.1,8.1,1.6,10.9,4.5c2.8,2.9,4.1,6.8,4,11.6v0.4c0,3-0.7,5.6-2,8c-1.3,2.4-3.1,4.2-5.4,5.5s-5,1.9-7.9,1.9
		c-4.5-0.1-8.1-1.6-10.9-4.5c-2.7-2.9-4.1-6.8-4-11.5L33.9,661.9z M39.6,662.5c0,3.4,0.8,6.1,2.5,8.2s3.9,3.1,6.8,3.2
		c2.9,0,5.2-1,6.9-3c1.7-2.1,2.6-5,2.7-8.7c0-3.4-0.8-6.1-2.5-8.2c-1.7-2.1-4-3.2-6.8-3.2s-5.1,1-6.8,3
		C40.5,655.8,39.6,658.7,39.6,662.5z"/>
	<path id="XMLID_4_" class="st1" d="M76.7,647.4l0.1,3.8c2.6-2.9,5.9-4.3,10-4.3c7,0.1,10.5,3.8,10.5,11.1L97,678.3l-5.7-0.1
		l0.3-20.3c0-2.2-0.5-3.8-1.6-4.9c-1.1-1.1-2.7-1.6-5-1.6c-1.8,0-3.5,0.4-4.9,1.3c-1.4,0.9-2.5,2.1-3.3,3.5L76.5,678l-5.7-0.1
		l0.4-30.6L76.7,647.4z"/>
	<path id="XMLID_3_" class="st1" d="M119.3,679.1c-4.5-0.1-8.1-1.5-10.9-4.2c-2.8-2.8-4.1-6.4-4.1-11v-1c0-3,0.7-5.7,2-8.1
		c1.3-2.4,3.1-4.2,5.3-5.5c2.3-1.3,4.7-2,7.4-1.9c4.3,0.1,7.6,1.4,10,4.1c2.4,2.7,3.5,6.4,3.4,11.3v2.2l-22.5-0.3c0,3,1,5.5,2.8,7.3
		c1.8,1.9,4.1,2.8,6.9,2.9c2,0,3.7-0.3,5.1-1.1s2.6-1.7,3.7-2.9l3.4,2.5C129.1,677.3,124.9,679.2,119.3,679.1z M119,651.7
		c-2.3,0-4.2,0.7-5.8,2.2s-2.6,3.7-3,6.4l16.6,0.2v-0.4c-0.1-2.7-0.9-4.7-2.2-6.2C123.2,652.5,121.4,651.7,119,651.7z"/>
	<path id="XMLID_2_" class="st1" d="M149.4,671.3l8-22.8l6.1,0.1l-13.8,35.1c-2.1,5.1-5.4,7.6-9.9,7.5l-1.1-0.1l-2.1-0.4l0.1-4.2
		l1.5,0.1c1.9,0,3.4-0.3,4.5-1c1.1-0.7,2-2,2.7-3.9l1.3-3.1l-11.4-30.4l6.2,0.1L149.4,671.3z"/>
</g>
</svg>
